<svg width="24" height="24" viewBox="0 0 24 24" fill="none" xmlns="http://www.w3.org/2000/svg">
<g clip-path="url(#clip0_84_2467)">
<path d="M2.13434 7.74235H6.38982L9.90997 4.18826C10.0353 4.06391 10.2048 3.99414 10.3813 3.99414C10.5579 3.99414 10.7273 4.06391 10.8527 4.18826C10.9141 4.25059 10.9624 4.32457 10.9948 4.40584C11.0272 4.48712 11.043 4.57405 11.0412 4.66151V19.3285C11.0411 19.4617 11.0013 19.5918 10.9269 19.7024C10.8526 19.8129 10.747 19.8988 10.6237 19.9491C10.5004 19.9995 10.3649 20.012 10.2344 19.985C10.1039 19.9581 9.98445 19.893 9.89111 19.798L6.41244 16.9698H2.13434C1.56939 16.9683 1.02794 16.7435 0.628108 16.3443C0.228272 15.9452 0.00248682 15.4042 0 14.8392L0 9.87669C0.0024805 9.31139 0.228144 8.76996 0.627874 8.37023C1.0276 7.9705 1.56904 7.74483 2.13434 7.74235ZM14.0863 9.96154C14.0412 9.80636 14.0578 9.63976 14.1327 9.49658C14.2077 9.35341 14.3351 9.24476 14.4883 9.19337C14.6415 9.14197 14.8086 9.15182 14.9547 9.22084C15.1009 9.28987 15.2146 9.41272 15.2722 9.56371C15.4872 10.2029 15.5909 11.1965 15.5739 12.1411C15.5569 13.0857 15.4212 13.9738 15.161 14.5111C15.0882 14.6612 14.9588 14.7761 14.8013 14.8308C14.6438 14.8854 14.471 14.8752 14.321 14.8025C14.171 14.7297 14.056 14.6003 14.0014 14.4428C13.9468 14.2853 13.9569 14.1125 14.0297 13.9625C14.2182 13.5854 14.3069 12.8765 14.3219 12.1204C14.3517 11.3928 14.271 10.6649 14.0825 9.96154H14.0863ZM17.3179 7.62357C17.2864 7.54743 17.2701 7.46582 17.2701 7.3834C17.27 7.30098 17.2862 7.21935 17.3178 7.14319C17.3814 6.98938 17.5036 6.86715 17.6573 6.80339C17.8111 6.73964 17.9839 6.73958 18.1377 6.80322C18.2915 6.86687 18.4137 6.98901 18.4775 7.14278C19.0582 8.53802 19.3731 10.2934 19.3995 12.045C19.4259 13.7966 19.1713 15.4859 18.6189 16.8548C18.5571 17.0085 18.4368 17.1315 18.2844 17.1965C18.132 17.2616 17.96 17.2635 17.8063 17.2017C17.6525 17.1399 17.5296 17.0196 17.4645 16.8672C17.3994 16.7148 17.3976 16.5428 17.4593 16.3891C17.9496 15.1748 18.1739 13.6231 18.1513 12.0525C18.1287 10.4819 17.844 8.87363 17.3198 7.62168L17.3179 7.62357ZM20.4421 5.6363C20.3701 5.48628 20.3607 5.3138 20.4158 5.15681C20.471 4.99981 20.5863 4.87116 20.7363 4.79915C20.8863 4.72714 21.0588 4.71768 21.2158 4.77284C21.3728 4.828 21.5014 4.94327 21.5734 5.09328C22.6134 7.30807 23.159 9.72264 23.1723 12.1694C23.1911 14.5413 22.7122 16.9057 21.6639 18.9212C21.6296 18.9988 21.5799 19.0686 21.5177 19.1264C21.4555 19.1841 21.3822 19.2285 21.3023 19.257C21.2223 19.2854 21.1374 19.2972 21.0528 19.2918C20.9681 19.2863 20.8854 19.2636 20.8098 19.2251C20.7342 19.1866 20.6673 19.1331 20.6131 19.0678C20.5588 19.0025 20.5185 18.9269 20.4945 18.8455C20.4705 18.7642 20.4633 18.6787 20.4735 18.5945C20.4836 18.5103 20.5108 18.429 20.5534 18.3556C21.4961 16.5248 21.9335 14.3641 21.9166 12.1864C21.9063 9.9241 21.4024 7.69132 20.4403 5.64384L20.4421 5.6363Z" fill="#00BFFF"/>
</g>
<defs>
<clipPath id="clip0_84_2467">
<rect width="23.1685" height="16" fill="white" transform="translate(0 4)"/>
</clipPath>
</defs>
</svg>
