<svg width="28" height="24" viewBox="0 0 28 24" fill="none" xmlns="http://www.w3.org/2000/svg">
<g clip-path="url(#clip0_82_2459)">
<g clip-path="url(#clip1_82_2459)">
<path d="M14.137 -0.000355791H14.1527C17.9133 0.122905 21.2906 1.4586 23.6998 3.52714C26.165 5.63154 27.6262 8.49344 27.5343 11.6153C27.4722 13.4515 26.8824 15.2309 25.8356 16.7407C24.7106 18.3646 23.2118 19.6943 21.4654 20.6178C19.4906 21.6972 17.3151 22.3593 15.0738 22.5631C13.0214 22.7427 10.9548 22.4648 9.02279 21.7496L1.50612 23.9996L3.64861 18.6008C2.67057 17.7791 1.84318 16.7932 1.20357 15.6874C0.24753 14.0296 -0.155191 12.1102 0.0538809 10.2079C0.276015 8.31857 1.02985 6.53113 2.22775 5.05334C3.23261 3.8037 4.46914 2.75969 5.86955 1.97854C7.1027 1.28549 8.42759 0.770173 9.80493 0.447865C11.2224 0.109693 12.6781 -0.0410009 14.1347 -0.000355791H14.137ZM19.556 9.41229C19.9009 9.41185 20.2382 9.51373 20.5253 9.70504C20.8123 9.89636 21.0361 10.1685 21.1684 10.4871C21.3007 10.8056 21.3356 11.1563 21.2686 11.4946C21.2016 11.833 21.0357 12.1439 20.7919 12.388C20.5482 12.632 20.2375 12.7983 19.8992 12.8658C19.5609 12.9332 19.2102 12.8988 18.8915 12.7669C18.5728 12.635 18.3003 12.4116 18.1086 12.1248C17.917 11.838 17.8146 11.5008 17.8146 11.1559C17.8146 10.6938 17.998 10.2507 18.3245 9.92376C18.651 9.59684 19.0939 9.41288 19.556 9.41229ZM8.03894 9.41229C8.38379 9.41229 8.72089 9.51455 9.00762 9.70613C9.29435 9.89772 9.51783 10.17 9.6498 10.4886C9.78177 10.8072 9.81629 11.1578 9.74902 11.496C9.68174 11.8342 9.51568 12.1449 9.27184 12.3888C9.02799 12.6326 8.71732 12.7987 8.3791 12.8659C8.04087 12.9332 7.6903 12.8987 7.3717 12.7667C7.0531 12.6348 6.78079 12.4113 6.58921 12.1246C6.39762 11.8378 6.29536 11.5007 6.29536 11.1559C6.29595 10.6936 6.47984 10.2505 6.8067 9.92363C7.13355 9.59677 7.5767 9.41288 8.03894 9.41229ZM13.7963 9.41229C14.1413 9.41185 14.4786 9.51373 14.7656 9.70504C15.0527 9.89636 15.2765 10.1685 15.4088 10.4871C15.5411 10.8056 15.576 11.1563 15.5089 11.4946C15.4419 11.833 15.276 12.1439 15.0323 12.388C14.7885 12.632 14.4778 12.7983 14.1396 12.8658C13.8013 12.9332 13.4506 12.8988 13.1319 12.7669C12.8131 12.635 12.5407 12.4116 12.349 12.1248C12.1573 11.838 12.055 11.5008 12.055 11.1559C12.055 10.6938 12.2384 10.2507 12.5649 9.92376C12.8914 9.59684 13.3343 9.41288 13.7963 9.41229ZM14.1101 1.34431H14.0944C12.756 1.30827 11.4186 1.44766 10.1164 1.75891C8.86137 2.05193 7.65412 2.52125 6.53068 3.15288C5.2826 3.85097 4.1808 4.78309 3.28556 5.89823C2.24885 7.17473 1.59463 8.7186 1.39854 10.3513C1.2213 11.9705 1.56434 13.604 2.37791 15.0151C3.0206 16.1134 3.86903 17.0775 4.87674 17.8545L5.27118 18.166L3.7898 21.8975L9.06985 20.3085L9.29396 20.3937C11.0979 21.0967 13.04 21.3729 14.9684 21.2005C17.0252 21.0124 19.021 20.4021 20.8312 19.4076C22.3809 18.5952 23.714 17.4242 24.7195 15.9922C25.6197 14.6932 26.1284 13.1633 26.1852 11.5839C26.2636 8.89459 24.9727 6.40697 22.8235 4.56254C20.6295 2.67552 17.5524 1.46085 14.1191 1.35775L14.1101 1.34431Z" fill="#00BFFF"/>
</g>
</g>
<defs>
<clipPath id="clip0_82_2459">
<rect width="28" height="24" fill="white"/>
</clipPath>
<clipPath id="clip1_82_2459">
<rect width="27.5387" height="24" fill="white"/>
</clipPath>
</defs>
</svg>
