<svg width="24" height="24" viewBox="0 0 24 24" fill="none" xmlns="http://www.w3.org/2000/svg">
<g clip-path="url(#clip0_82_2436)">
<path d="M12.7988 18.6426V23.3516C12.7988 23.709 12.5078 24 12.1504 24C11.793 24 11.502 23.709 11.502 23.3516V18.6426C9.51758 18.4844 7.72852 17.6074 6.39648 16.2754C4.91797 14.7988 4.00195 12.7617 4.00195 10.5215C4.00195 10.1641 4.29297 9.87305 4.65039 9.87305C5.00781 9.87305 5.29883 10.1641 5.29883 10.5215C5.29883 12.4043 6.07031 14.1172 7.3125 15.3594C8.55469 16.6016 10.2676 17.373 12.1504 17.373C14.0332 17.373 15.7461 16.6016 16.9883 15.3594C18.2305 14.1172 19.002 12.4043 19.002 10.5215C19.002 10.1641 19.293 9.87305 19.6504 9.87305C20.0078 9.87305 20.2988 10.1641 20.2988 10.5215C20.2988 12.7637 19.3828 14.8008 17.9062 16.2773C16.5723 17.6094 14.7832 18.4844 12.7988 18.6426ZM12.1934 0C13.4395 0 14.5723 0.509766 15.3926 1.33008C16.2129 2.15039 16.7227 3.2832 16.7227 4.5293V10.3887C16.7227 11.6348 16.2129 12.7676 15.3926 13.5879C14.5723 14.4082 13.4395 14.918 12.1934 14.918C10.9473 14.918 9.81445 14.4082 8.99414 13.5879C8.17383 12.7676 7.66406 11.6348 7.66406 10.3887V4.5293C7.66406 3.2832 8.17383 2.15039 8.99414 1.33008C9.81445 0.509766 10.9473 0 12.1934 0ZM14.4746 2.24805C13.8887 1.66211 13.0801 1.29883 12.1934 1.29883C11.3047 1.29883 10.498 1.66211 9.91211 2.24805C9.32617 2.83398 8.96289 3.64258 8.96289 4.5293V10.3887C8.96289 11.2773 9.32617 12.084 9.91211 12.6699C10.498 13.2559 11.3066 13.6191 12.1934 13.6191C13.082 13.6191 13.8887 13.2559 14.4746 12.6699C15.0605 12.084 15.4238 11.2754 15.4238 10.3887V4.5293C15.4258 3.64062 15.0605 2.83398 14.4746 2.24805Z" fill="#00BFFF"/>
<path d="M14.4746 2.24805C13.8887 1.66211 13.0801 1.29883 12.1934 1.29883C11.3047 1.29883 10.498 1.66211 9.91211 2.24805C9.32617 2.83398 8.96289 3.64258 8.96289 4.5293V10.3887C8.96289 11.2773 9.32617 12.084 9.91211 12.6699C10.498 13.2559 11.3066 13.6191 12.1934 13.6191C13.082 13.6191 13.8887 13.2559 14.4746 12.6699C15.0605 12.084 15.4238 11.2754 15.4238 10.3887V4.5293C15.4258 3.64062 15.0605 2.83398 14.4746 2.24805Z" fill="#00BFFF"/>
</g>
<defs>
<clipPath id="clip0_82_2436">
<rect width="16.2969" height="24" fill="white" transform="translate(4)"/>
</clipPath>
</defs>
</svg>
