<svg width="24" height="24" viewBox="0 0 24 24" fill="none" xmlns="http://www.w3.org/2000/svg">
<g clip-path="url(#clip0_82_2443)">
<path d="M23.9962 1.71875L5.48633 20.2236C5.88649 20.4187 6.3254 20.5212 6.77054 20.5235H9.94062C10.2058 20.5228 10.4602 20.6282 10.6472 20.8163L12.3652 22.5333C13.2968 23.4713 14.564 23.9994 15.886 24.0004C16.4319 23.9999 16.974 23.9104 17.4911 23.7356C19.2736 23.1512 20.5701 21.6059 20.8361 19.7489L24.213 3.70857C24.3743 3.04021 24.2976 2.33661 23.9962 1.71875Z" fill="#01506B"/>
<path d="M20.6177 0.0774024L4.6163 3.44841C1.88223 3.82402 -0.0296869 6.34494 0.345931 9.07902C0.494295 10.1587 0.991574 11.1604 1.76202 11.9313L3.479 13.6483C3.66667 13.8359 3.77203 14.0905 3.77184 14.3558V17.5259C3.77413 17.9711 3.87664 18.41 4.07166 18.8101L22.5785 0.3003C21.9703 0.00141685 21.2774 -0.0773326 20.6177 0.0774024Z" fill="#01506B"/>
</g>
<defs>
<clipPath id="clip0_82_2443">
<rect width="24" height="24" fill="white"/>
</clipPath>
</defs>
</svg>
