<svg width="24" height="24" viewBox="0 0 24 24" fill="none" xmlns="http://www.w3.org/2000/svg">
<g clip-path="url(#clip0_82_2410)">
<g clip-path="url(#clip1_82_2410)">
<path d="M23.9992 11.2476C23.8546 8.90758 23.0283 6.66107 21.6224 4.78499C20.2164 2.9089 18.2922 1.48526 16.0869 0.689559C13.8816 -0.106139 11.4917 -0.239103 9.21174 0.307059C6.9318 0.853221 4.86152 2.05463 3.25613 3.76318C1.65074 5.47173 0.580416 7.61273 0.177117 9.92222C-0.226181 12.2317 0.055172 14.6088 0.986492 16.7603C1.91781 18.9118 3.45838 20.7438 5.41828 22.0303C7.37818 23.3169 9.67173 24.0018 12.0162 24.0006H18.9992C20.3249 23.9992 21.5959 23.472 22.5332 22.5346C23.4706 21.5972 23.9979 20.3262 23.9992 19.0006V11.2476ZM21.9992 19.0006C21.9992 19.7962 21.6831 20.5593 21.1205 21.1219C20.5579 21.6845 19.7948 22.0006 18.9992 22.0006H12.0162C10.6051 21.9999 9.21002 21.7019 7.92187 21.1259C6.63373 20.5499 5.48145 19.7088 4.54018 18.6576C3.59435 17.6068 2.88411 16.366 2.45707 15.0184C2.03003 13.6707 1.89607 12.2473 2.06418 10.8436C2.32961 8.62951 3.32436 6.56675 4.89162 4.98049C6.45887 3.39422 8.50948 2.37467 10.7202 2.08256C11.1514 2.02851 11.5856 2.00113 12.0202 2.00056C14.3507 1.99421 16.609 2.80847 18.3992 4.30056C19.4447 5.16951 20.3029 6.24172 20.9217 7.45219C21.5405 8.66267 21.9071 9.9862 21.9992 11.3426V19.0006Z" fill="#00BFFF"/>
</g>
<g clip-path="url(#clip2_82_2410)">
<path d="M11.9994 7.00014C11.3362 7.00231 10.6799 7.13601 10.0687 7.39348C9.45743 7.65096 8.90332 8.0271 8.43841 8.50014H9.99941C10.132 8.50014 10.2592 8.55282 10.353 8.64659C10.4467 8.74035 10.4994 8.86753 10.4994 9.00014C10.4994 9.13275 10.4467 9.25992 10.353 9.35369C10.2592 9.44746 10.132 9.50014 9.99941 9.50014H7.92791C7.6817 9.50001 7.44561 9.40214 7.27151 9.22804C7.09741 9.05394 6.99954 8.81785 6.99941 8.57164V6.50014C6.99941 6.36753 7.05209 6.24035 7.14586 6.14658C7.23963 6.05282 7.3668 6.00014 7.49941 6.00014V6.00014C7.63202 6.00014 7.7592 6.05282 7.85296 6.14658C7.94673 6.24035 7.99941 6.36753 7.99941 6.50014V7.53914C8.82583 6.79486 9.84312 6.29534 10.9374 6.09651C12.0316 5.89768 13.1596 6.00739 14.195 6.41336C15.2304 6.81933 16.1324 7.50552 16.7999 8.3951C17.4674 9.28468 17.8741 10.3425 17.9744 11.4501C17.9809 11.5198 17.9728 11.59 17.9506 11.6563C17.9284 11.7226 17.8927 11.7836 17.8456 11.8353C17.7986 11.8871 17.7413 11.9284 17.6774 11.9568C17.6135 11.9852 17.5443 12 17.4744 12.0001V12.0001C17.3521 12.0017 17.2336 11.9576 17.1422 11.8764C17.0507 11.7952 16.9929 11.6828 16.9799 11.5611C16.8686 10.3165 16.2959 9.15849 15.3744 8.31456C14.4528 7.47062 13.249 7.00178 11.9994 7.00014Z" fill="#00BFFF"/>
<path d="M6.5245 12C6.64679 11.9985 6.76527 12.0426 6.85673 12.1238C6.94819 12.205 7.00606 12.3174 7.019 12.439C7.10165 13.3907 7.45554 14.2986 8.03867 15.0551C8.62181 15.8117 9.40972 16.3851 10.3089 16.7073C11.2081 17.0296 12.1809 17.0871 13.1118 16.8731C14.0427 16.6591 14.8928 16.1826 15.561 15.5H14C13.8674 15.5 13.7402 15.4474 13.6464 15.3536C13.5527 15.2598 13.5 15.1327 13.5 15C13.5 14.8674 13.5527 14.7403 13.6464 14.6465C13.7402 14.5527 13.8674 14.5 14 14.5H16.0715C16.1935 14.5 16.3142 14.524 16.4269 14.5706C16.5396 14.6172 16.642 14.6856 16.7282 14.7719C16.8144 14.8581 16.8828 14.9605 16.9295 15.0731C16.9761 15.1858 17.0001 15.3066 17 15.4285V17.5001C17 17.6327 16.9473 17.7598 16.8536 17.8536C16.7598 17.9474 16.6326 18.0001 16.5 18.0001C16.3674 18.0001 16.2402 17.9474 16.1464 17.8536C16.0527 17.7598 16 17.6327 16 17.5001V16.4611C15.1736 17.2053 14.1563 17.7048 13.062 17.9037C11.9678 18.1025 10.8398 17.9928 9.80439 17.5868C8.76897 17.1809 7.86701 16.4947 7.19951 15.6051C6.532 14.7155 6.12532 13.6577 6.025 12.55C6.01854 12.4804 6.02666 12.4102 6.04883 12.3439C6.07101 12.2776 6.10675 12.2166 6.15379 12.1648C6.20083 12.1131 6.25813 12.0717 6.32204 12.0434C6.38595 12.015 6.45507 12.0002 6.525 12H6.5245Z" fill="#00BFFF"/>
</g>
</g>
<defs>
<clipPath id="clip0_82_2410">
<rect width="24" height="24" fill="white"/>
</clipPath>
<clipPath id="clip1_82_2410">
<rect width="24" height="24" fill="white"/>
</clipPath>
<clipPath id="clip2_82_2410">
<rect width="12" height="12" fill="white" transform="matrix(-1 0 0 1 18 6)"/>
</clipPath>
</defs>
</svg>
